<?xml version="1.0" standalone="no"?>
<!DOCTYPE svg PUBLIC "-//W3C//DTD SVG 20010904//EN"
 "http://www.w3.org/TR/2001/REC-SVG-20010904/DTD/svg10.dtd">
<svg version="1.0" xmlns="http://www.w3.org/2000/svg"
 width="172.000000pt" height="35.000000pt" viewBox="0 0 172.000000 35.000000"
 preserveAspectRatio="xMidYMid meet">

<g transform="translate(0.000000,35.000000) scale(0.100000,-0.100000)"
fill="#000000" stroke="none">
<path d="M339 307 c8 -10 2 -21 -24 -47 -20 -19 -35 -44 -35 -57 0 -32 10 -29
55 17 27 27 45 38 57 34 15 -4 18 1 18 30 0 35 -1 36 -41 36 -33 0 -39 -3 -30
-13z"/>
<path d="M118 284 c-63 -34 -92 -171 -47 -228 29 -36 39 -33 39 14 0 27 12 64
36 110 27 50 35 76 30 94 -7 29 -19 32 -58 10z"/>
<path d="M198 264 c3 -17 -8 -48 -32 -94 -35 -68 -47 -132 -26 -145 16 -10 70
24 90 58 39 62 38 144 -1 185 -26 29 -37 28 -31 -4z"/>
<path d="M490 150 l0 -100 45 0 c24 0 56 5 70 12 31 14 43 54 23 75 -13 12
-13 21 -4 45 10 26 8 32 -13 49 -16 13 -39 19 -72 19 l-49 0 0 -100z m95 45
c0 -14 -8 -21 -27 -23 -24 -3 -28 0 -28 23 0 23 4 26 28 23 19 -2 27 -9 27
-23z m6 -71 c11 -14 10 -18 -6 -30 -33 -24 -55 -18 -55 16 0 25 4 30 24 30 13
0 30 -7 37 -16z"/>
<path d="M1147 230 c-15 -12 -29 -36 -33 -57 -18 -95 83 -160 153 -98 23 20
25 26 14 34 -10 6 -23 3 -42 -12 -24 -17 -33 -19 -53 -9 -50 22 -45 108 7 126
22 8 31 6 52 -14 19 -18 28 -21 37 -12 9 9 6 18 -12 37 -30 32 -86 34 -123 5z"/>
<path d="M1600 211 c0 -11 -6 -22 -12 -25 -10 -5 -10 -7 0 -12 6 -3 12 -23 12
-45 0 -22 5 -49 10 -60 13 -23 60 -26 60 -4 0 8 -7 15 -15 15 -11 0 -15 12
-15 45 0 33 4 45 15 45 8 0 15 5 15 10 0 6 -7 10 -15 10 -8 0 -15 9 -15 20 0
13 -7 20 -20 20 -13 0 -20 -7 -20 -19z"/>
<path d="M360 114 c0 -93 1 -95 23 -92 21 3 22 8 25 96 l3 92 -26 0 -25 0 0
-96z"/>
<path d="M687 188 c-9 -7 -21 -25 -26 -40 -22 -58 30 -112 86 -92 44 15 40 33
-8 31 -26 -1 -44 3 -46 11 -3 8 10 12 46 12 48 0 51 2 51 25 0 49 -64 82 -103
53z m61 -35 c2 -9 -7 -13 -28 -13 -28 0 -31 2 -20 15 15 18 41 16 48 -2z"/>
<path d="M831 184 c-16 -12 -20 -19 -12 -27 8 -8 14 -8 23 1 16 16 45 15 51
-2 4 -10 -6 -16 -33 -20 -41 -6 -65 -32 -54 -60 7 -19 27 -25 82 -24 l42 1 0
57 c0 82 -42 114 -99 74z m62 -70 c12 -12 -6 -34 -29 -34 -28 0 -33 26 -6 33
27 7 28 7 35 1z"/>
<path d="M960 125 c0 -60 3 -75 15 -75 11 0 15 12 15 49 0 51 18 78 44 68 10
-4 16 -24 18 -59 2 -41 7 -54 21 -56 26 -5 24 97 -2 129 -17 22 -22 23 -50 12
-17 -6 -31 -7 -31 -2 0 5 -7 9 -15 9 -12 0 -15 -15 -15 -75z"/>
<path d="M1338 189 c-22 -12 -24 -39 -3 -39 8 0 15 5 15 11 0 13 42 8 47 -7 2
-5 -16 -14 -39 -20 -34 -7 -44 -14 -46 -32 -5 -37 14 -51 69 -50 l49 1 0 63
c0 52 -3 65 -19 74 -25 13 -51 12 -73 -1z m60 -87 c5 -15 -23 -26 -45 -17 -17
6 -17 7 2 21 21 16 37 14 43 -4z"/>
<path d="M1476 187 c-29 -21 -17 -60 21 -72 18 -6 35 -14 40 -18 13 -14 -20
-26 -39 -16 -11 6 -26 9 -35 7 -27 -5 13 -38 46 -38 68 0 84 64 22 85 -50 16
-55 40 -7 31 37 -7 45 1 24 22 -16 16 -50 15 -72 -1z"/>
<path d="M284 136 c-3 -7 -4 -35 -2 -62 3 -42 6 -49 26 -52 21 -3 22 0 22 62
0 60 -2 66 -20 66 -11 0 -23 -6 -26 -14z"/>
<path d="M233 58 c-28 -30 -29 -38 -3 -38 22 0 34 19 28 45 -2 14 -7 13 -25
-7z"/>
</g>
</svg>
