<?xml version="1.0" standalone="no"?>
<!DOCTYPE svg PUBLIC "-//W3C//DTD SVG 20010904//EN"
 "http://www.w3.org/TR/2001/REC-SVG-20010904/DTD/svg10.dtd">
<svg version="1.0" xmlns="http://www.w3.org/2000/svg"
 width="142.000000pt" height="35.000000pt" viewBox="0 0 142.000000 35.000000"
 preserveAspectRatio="xMidYMid meet">

<g transform="translate(0.000000,35.000000) scale(0.100000,-0.100000)"
fill="#000000" stroke="none">
<path d="M276 287 c2 -7 -7 -24 -21 -37 -14 -13 -25 -35 -25 -49 0 -25 1 -25
38 12 26 26 44 36 55 31 14 -5 17 0 17 25 0 29 -3 31 -35 31 -24 0 -33 -4 -29
-13z"/>
<path d="M89 267 c-50 -39 -68 -131 -35 -181 20 -31 40 -35 31 -6 -4 13 5 45
24 86 35 76 40 114 14 114 -10 0 -25 -6 -34 -13z"/>
<path d="M160 253 c0 -18 -14 -60 -31 -92 -47 -90 -28 -136 35 -82 51 45 62
132 21 178 l-24 28 -1 -32z"/>
<path d="M400 160 l0 -80 48 0 c26 0 53 5 60 12 15 15 16 50 1 65 -8 8 -8 13
0 17 16 10 14 32 -5 50 -9 10 -33 16 -60 16 l-44 0 0 -80z m79 46 c9 -10 8
-16 -4 -26 -17 -14 -45 -7 -45 13 0 29 30 37 49 13z m8 -72 c7 -18 -14 -35
-37 -31 -8 1 -16 12 -18 25 -3 18 1 22 23 22 14 0 28 -7 32 -16z"/>
<path d="M940 220 c-13 -13 -20 -33 -20 -60 0 -67 61 -102 121 -70 23 13 26
40 4 40 -8 0 -15 -4 -15 -9 0 -20 -41 -23 -61 -5 -40 36 -8 115 40 99 12 -3
21 -11 21 -16 0 -5 7 -9 15 -9 22 0 19 27 -4 40 -31 16 -79 12 -101 -10z"/>
<path d="M1313 205 c-6 -14 -7 -27 -2 -31 5 -3 9 -18 9 -34 0 -44 10 -60 36
-60 27 0 32 15 9 24 -9 3 -15 18 -15 36 0 20 5 30 15 30 8 0 15 5 15 10 0 6
-7 13 -15 16 -8 4 -15 12 -15 20 0 23 -24 16 -37 -11z"/>
<path d="M294 197 c-3 -8 -4 -43 -2 -78 3 -56 5 -64 23 -64 18 0 20 7 20 75 0
63 -3 75 -18 78 -9 2 -20 -3 -23 -11z"/>
<path d="M562 184 c-24 -16 -29 -53 -12 -85 13 -23 72 -26 90 -4 10 13 7 14
-25 12 -23 -1 -40 3 -42 11 -3 8 8 12 36 12 33 0 41 4 41 18 0 22 -30 52 -51
52 -8 0 -25 -7 -37 -16z m56 -22 c2 -7 -7 -12 -22 -12 -27 0 -35 15 -13 23 17
7 30 3 35 -11z"/>
<path d="M680 185 c-18 -21 -4 -32 21 -17 20 13 39 9 39 -9 0 -5 -11 -9 -24
-9 -23 0 -56 -23 -56 -38 1 -22 21 -31 63 -30 l47 1 0 43 c0 25 -6 49 -16 58
-20 20 -58 21 -74 1z m58 -67 c-5 -15 -48 -24 -48 -10 0 14 12 22 33 22 10 0
17 -5 15 -12z"/>
<path d="M790 138 c0 -45 3 -58 15 -58 11 0 15 12 15 46 0 41 2 45 23 42 18
-2 23 -10 25 -45 2 -29 8 -43 18 -43 10 0 14 12 14 43 0 59 -11 71 -64 72
l-46 2 0 -59z"/>
<path d="M1103 193 c-14 -5 -18 -33 -5 -33 4 0 13 5 19 11 11 11 33 5 33 -10
0 -4 -15 -11 -32 -16 -26 -8 -33 -15 -33 -35 0 -23 4 -25 48 -28 l47 -3 0 48
c0 27 -5 54 -12 61 -12 12 -43 15 -65 5z m47 -78 c0 -8 -9 -15 -20 -15 -11 0
-20 7 -20 15 0 8 9 15 20 15 11 0 20 -7 20 -15z"/>
<path d="M1215 186 c-25 -18 -13 -44 25 -57 43 -15 38 -33 -6 -24 -28 5 -35 3
-32 -7 3 -7 21 -14 41 -16 27 -2 38 1 46 17 13 23 -9 51 -40 51 -10 0 -19 4
-19 9 0 16 20 23 34 12 17 -14 29 -2 15 16 -15 17 -40 17 -64 -1z"/>
<path d="M232 103 c2 -36 7 -49 21 -51 14 -3 17 4 17 47 0 45 -3 51 -21 51
-18 0 -20 -5 -17 -47z"/>
<path d="M191 82 c-14 -26 -7 -42 10 -25 6 6 9 19 7 29 -3 17 -5 17 -17 -4z"/>
</g>
</svg>
